<svg xmlns="http://www.w3.org/2000/svg" viewBox="0 0 212 211" width="212" height="211">
    <rect x="33"  y="95"  width="24" height="24" fill="#EF41ABB3"/>
    <rect x="64"  y="66"  width="20" height="20" fill="#EF41AB80"/>
    <rect x="124" y="0"   width="20" height="20" fill="#EF41AB80"/>
    <rect x="192" y="67"  width="20" height="20" fill="#EF41AB80"/>
    <rect x="192" y="127" width="20" height="20" fill="#EF41AB80"/>
    <rect x="125" y="191" width="20" height="20" fill="#EF41AB80"/>
    <rect x="65"  y="191" width="20" height="20" fill="#EF41AB80"/>
    <rect x="0"   y="127" width="20" height="20" fill="#EF41AB80"/>
    <rect x="0"   y="69"  width="20" height="20" fill="#EF41AB80"/>
    <rect x="66"  y="0"   width="20" height="20" fill="#EF41AB80"/>
    <rect x="60"  y="122" width="30" height="30" fill="#EF41AB"/>
    <rect x="31"  y="156" width="24" height="24" fill="#EF41ABB3"/>
    <rect x="93"  y="95"  width="24" height="24" fill="#EF41ABB3"/>
    <rect x="150" y="92"  width="30" height="30" fill="#EF41AB"/>
    <rect x="150" y="32"  width="30" height="30" fill="#EF41AB"/>
    <rect x="90"  y="152" width="30" height="30" fill="#EF41AB"/>
    <rect x="120" y="122" width="30" height="30" fill="#EF41AB"/>
    <rect x="33"  y="35"  width="20" height="20" fill="#EF41AB66"/>
    <rect x="155" y="157" width="24" height="24" fill="#EF41ABB3"/>
    <rect x="123" y="65"  width="24" height="24" fill="#EF41ABB3"/>
    <rect x="90"  y="32"  width="30" height="30" fill="#EF41AB"/>
</svg>
